<svg width="100" height="100" viewBox="0 0 100 100" xmlns="http://www.w3.org/2000/svg">
  <circle cx="50" cy="50" r="50" fill="#F7931A"/>
  <path d="M50,20c-16.57,0-30,13.43-30,30s13.43,30,30,30s30-13.43,30-30S66.57,20,50,20z M59.35,57.5 c-1.06,2.67-3.51,3.98-7.35,3.9v5h-4v-4.92c-1.03,0-2.08-0.02-3.15-0.05v4.97h-4v-5c-0.84-0.01-1.68-0.02-2.5-0.02 c-0.5,0-1.01,0-1.5,0v-5.08c0,0,2.96,0.05,2.91,0c1.65,0,2.18-0.96,2.28-1.78v-7.07l-2.28-0.01v-4.77c0.65,0.16,2.87-0.43,3.08,1.26 v-0.01c0,0.03,0,0.06,0,0.1v5.35c0.39,0,0.78-0.01,1.19-0.01v-6.7h4v5.79c1.03-0.08,2.05-0.16,3.04-0.22v-5.57h4v5.85 c3.37,0.29,5.92,1.34,6.67,4.38c0.95,3.88-0.39,5.63-2.57,6.32C60.36,53.46,60.67,54.14,59.35,57.5z" fill="white"/>
  <path d="M55.66,49.38c1.68-0.86-0.49-4.4-3.51-3.12l-0.01-0.03c0,0-0.83-0.2-1.65-0.4v5.8c0.6,0.17,1.2,0.34,1.59,0.34 C54.74,51.97,53.89,50.3,55.66,49.38z" fill="white"/>
  <path d="M52.58,41.59c-1.4-0.35-3.5,0.79-3.5,2.81c0,0.35,0.05,0.63,0.14,0.88c0.75,0.2,1.54,0.42,2.36,0.64 c0.34,0.09,0.68,0.18,1,0.26V41.59z" fill="white"/>
</svg>
