<svg width="100" height="100" viewBox="0 0 100 100" xmlns="http://www.w3.org/2000/svg">
  <circle cx="50" cy="50" r="50" fill="#2A5ADA"/>
  <path d="M50,20c-16.57,0-30,13.43-30,30s13.43,30,30,30s30-13.43,30-30S66.57,20,50,20z M37.5,60 L37.5,60c-2.49,0-4.51-2.01-4.51-4.5c0-0.95,0.29-1.81,0.79-2.52l-0.01-0.01L45,41.72v9.36l-5.22,5.22 C39.31,59.71,38.45,60,37.5,60z M62.5,60L62.5,60c-0.95,0-1.81-0.29-2.53-0.78l-0.02,0.02L50,69.19v-9.36l5.22-5.22 c0.01-0.01,0.01-0.02,0.02-0.02c2.06-2.08,2.06-5.45-0.02-7.53c-0.72-0.72-1.65-1.12-2.65-1.19c-0.04,0-0.07-0.01-0.11-0.01 c-0.04,0-0.07,0.01-0.11,0.01c-1,0.08-1.93,0.48-2.65,1.19L50,46.76V37.4l9.95,9.95l0.02-0.02c0.72-0.49,1.58-0.78,2.53-0.78 c2.49,0,4.5,2.01,4.5,4.5c0,0.95-0.29,1.81-0.78,2.52l0.01,0.01L55.28,64.33l-0.01-0.01C54.31,59.71,62.5,60,62.5,60z" fill="white"/>
</svg>
