<svg width="100" height="100" viewBox="0 0 100 100" xmlns="http://www.w3.org/2000/svg">
  <circle cx="50" cy="50" r="50" fill="#2775CA"/>
  <path d="M50,20c-16.57,0-30,13.43-30,30s13.43,30,30,30s30-13.43,30-30S66.57,20,50,20z M42.89,65 c0,1.1-0.9,2-2,2h-2.38c-1.1,0-2-0.9-2-2v-5.94c-3.52-0.92-6.2-3.04-7.17-5.95c-0.26-0.77,0.14-1.62,0.88-1.97l2.68-1.27 c0.68-0.32,1.5-0.06,1.9,0.59c1.03,1.67,2.7,2.97,5.6,2.97c2.54,0,5.09-1.1,5.09-3.57c0-2.19-1.84-3.38-5.69-4.58 c-4.77-1.48-8.91-3.47-8.91-9.2c0-3.4,2.24-6.14,6.63-7.22V24c0-1.1,0.9-2,2-2h2.38c1.1,0,2,0.9,2,2v5.8 c2.82,0.81,4.96,2.63,5.93,5.12c0.29,0.77-0.08,1.64-0.82,2.01l-2.59,1.29c-0.69,0.35-1.52,0.1-1.92-0.56 c-0.88-1.4-2.35-2.42-4.76-2.42c-2.65,0-4.28,1.31-4.28,3.17c0,1.96,1.65,2.99,5.92,4.4c4.25,1.38,8.8,3.35,8.8,9.4 c0,3.49-2.42,6.38-7.28,7.57V65z M71.38,48.8h-3.05c-0.55,0-1-0.45-1-1v-3.6c0-0.55,0.45-1,1-1h3.05c0.55,0,1,0.45,1,1v3.6 C72.38,48.35,71.93,48.8,71.38,48.8z M71.38,56.8h-3.05c-0.55,0-1-0.45-1-1v-3.6c0-0.55,0.45-1,1-1h3.05c0.55,0,1,0.45,1,1v3.6 C72.38,56.35,71.93,56.8,71.38,56.8z" fill="white"/>
</svg>
